<?xml version="1.0" encoding="UTF-8"?>
<svg version="1.1" xmlns="http://www.w3.org/2000/svg" width="500" height="500">
<path d="M0 0 C4.29 0 8.58 0 13 0 C16.37060185 8.33020172 19.57314716 16.71970637 22.75 25.125 C23.26163346 26.47659479 23.77335164 27.82815751 24.28515625 29.1796875 C25.5244125 32.45275662 26.76252846 35.72625564 28 39 C27.99476318 37.92516357 27.98952637 36.85032715 27.98413086 35.74291992 C27.96603599 31.75660026 27.95455154 27.77028424 27.94506836 23.78393555 C27.94003842 22.0583434 27.93321374 20.33275552 27.92456055 18.60717773 C27.91243639 16.1274307 27.90675831 13.64774 27.90234375 11.16796875 C27.89460182 10.01001045 27.89460182 10.01001045 27.88670349 8.82865906 C27.88636682 5.6169772 27.97673422 3.06979734 29 0 C32.63 0 36.26 0 40 0 C40 12.21 40 24.42 40 37 C46.27 37 52.54 37 59 37 C58.98839844 34.91558594 58.97679687 32.83117187 58.96484375 30.68359375 C58.95702504 28.64477694 58.95096432 26.60596185 58.94506836 24.56713867 C58.9400673 23.15990439 58.9332643 21.75267523 58.92456055 20.34545898 C58.91230841 18.31232431 58.9067293 16.27925886 58.90234375 14.24609375 C58.89710693 13.02591553 58.89187012 11.8057373 58.88647461 10.54858398 C59 7 59 7 60 0 C65.28 0 70.56 0 76 0 C77.29945265 3.89835794 78.48462139 7.65788275 79.5078125 11.6171875 C79.77207031 12.63554687 80.03632813 13.65390625 80.30859375 14.703125 C80.57800781 15.74984375 80.84742188 16.7965625 81.125 17.875 C81.40214844 18.94492187 81.67929687 20.01484375 81.96484375 21.1171875 C82.645083 23.74431838 83.32340975 26.37192744 84 29 C86.41828936 22.94013456 88.12358213 16.9064539 89.625 10.5625 C90.05151813 8.77137773 90.48103957 6.98096704 90.9140625 5.19140625 C91.0992041 4.40967041 91.2843457 3.62793457 91.47509766 2.82250977 C92 1 92 1 93 0 C98.28 0 103.56 0 109 0 C109 15.51 109 31.02 109 47 C105.04 47 101.08 47 97 47 C96.67 39.74 96.34 32.48 96 25 C94.43676301 31.49007823 94.43676301 31.49007823 92.88916016 37.98388672 C92.59211182 39.19455811 92.59211182 39.19455811 92.2890625 40.4296875 C92.09006348 41.25710449 91.89106445 42.08452148 91.68603516 42.93701172 C91 45 91 45 89 47 C86.6171875 47.1953125 86.6171875 47.1953125 83.875 47.125 C82.96492188 47.10695313 82.05484375 47.08890625 81.1171875 47.0703125 C80.41851562 47.04710937 79.71984375 47.02390625 79 47 C77.56676144 42.03531329 76.1985556 37.05743997 74.875 32.0625 C74.25625 29.731875 73.6375 27.40125 73 25 C72.67 32.26 72.34 39.52 72 47 C60.27959429 47.98829155 48.8100943 47.95412367 37.0625 47.5625 C35.30015009 47.50910529 33.53778016 47.4563671 31.77539062 47.40429688 C27.51665917 47.27707251 23.25829476 47.14105821 19 47 C17.68 43.7 16.36 40.4 15 37 C9.39 36.67 3.78 36.34 -2 36 C-2.474375 37.629375 -2.94875 39.25875 -3.4375 40.9375 C-4.875 45.875 -4.875 45.875 -6 47 C-7.68608966 47.07205511 -9.37500659 47.08386068 -11.0625 47.0625 C-11.98160156 47.05347656 -12.90070313 47.04445313 -13.84765625 47.03515625 C-14.55792969 47.02355469 -15.26820313 47.01195312 -16 47 C-15.65086615 40.94834668 -14.02765224 36.35812455 -11.6015625 30.83203125 C-9.04740909 24.88167771 -6.95610086 18.74513506 -4.76733398 12.65380859 C-4.43805908 11.73809082 -4.10878418 10.82237305 -3.76953125 9.87890625 C-3.47667236 9.0597876 -3.18381348 8.24066895 -2.88208008 7.39672852 C-1.96814324 4.91344097 -0.98274756 2.45686891 0 0 Z M6 15 C5.32880451 16.4562545 4.66318193 17.91507867 4 19.375 C3.62875 20.18710937 3.2575 20.99921875 2.875 21.8359375 C1.87504987 23.91998433 1.87504987 23.91998433 2 26 C4.97 26 7.94 26 11 26 C10.55123384 24.35153231 10.09069512 22.70626545 9.625 21.0625 C9.24214844 19.68771484 9.24214844 19.68771484 8.8515625 18.28515625 C8.23339896 15.83254913 8.23339896 15.83254913 6 15 Z " fill="#D8D8D8" transform="translate(198,242)"/>
<path d="M0 0 C3.31232698 -0.08834684 6.62434435 -0.14083584 9.9375 -0.1875 C10.86369141 -0.21263672 11.78988281 -0.23777344 12.74414062 -0.26367188 C22.16421163 -0.36283052 29.12669388 1.45399418 36 8 C37.00235017 8.9976443 38.00291969 9.99708881 39 11 C39.09087891 9.93458984 39.09087891 9.93458984 39.18359375 8.84765625 C39.26738281 7.92855469 39.35117188 7.00945312 39.4375 6.0625 C39.51871094 5.14597656 39.59992188 4.22945313 39.68359375 3.28515625 C40 1 40 1 41 0 C44.02977804 -0.08871273 47.03667022 -0.1151935 50.06640625 -0.09765625 C50.97502914 -0.0962413 51.88365204 -0.09482635 52.81980896 -0.09336853 C55.73407221 -0.08775193 58.64825981 -0.07519665 61.5625 -0.0625 C63.53320202 -0.05748714 65.50390524 -0.05292386 67.47460938 -0.04882812 C72.31643559 -0.03777711 77.15820495 -0.02050138 82 0 C82.23710693 0.80743652 82.47421387 1.61487305 82.71850586 2.44677734 C83.59851269 5.44022375 84.48020107 8.43316814 85.36303711 11.42578125 C85.74489839 12.72148054 86.12608734 14.01737817 86.5065918 15.31347656 C87.05340915 17.17564988 87.60283992 19.03705516 88.15234375 20.8984375 C88.48226318 22.01911621 88.81218262 23.13979492 89.15209961 24.29443359 C89.90011711 26.93295919 89.90011711 26.93295919 91 29 C93.40636353 22.72124224 95.57851015 16.38420727 97.6875 10 C98.00783203 9.03449219 98.32816406 8.06898438 98.65820312 7.07421875 C99.44018431 4.71660384 100.22028664 2.35836589 101 0 C104.63 0 108.26 0 112 0 C111.42819567 5.71844461 110.31808061 10.86794492 108.56640625 16.33203125 C108.20940895 17.46967171 108.20940895 17.46967171 107.84519958 18.6302948 C107.34502394 20.21869002 106.84148642 21.80603023 106.3347168 23.39233398 C105.55989246 25.82067217 104.79777441 28.2527408 104.03710938 30.68554688 C103.5476192 32.23461036 103.05741019 33.78344692 102.56640625 35.33203125 C102.3392543 36.05703323 102.11210236 36.78203522 101.87806702 37.52900696 C100.85637772 40.70776196 99.86584994 43.20122509 98 46 C95.06640625 46.46875 95.06640625 46.46875 91.5625 46.5 C90.40878906 46.5309375 89.25507813 46.561875 88.06640625 46.59375 C85 46 85 46 83.46337891 43.90356445 C81.8214729 40.64577532 80.65564371 37.41657497 79.51953125 33.94921875 C79.30181564 33.29041214 79.08410004 32.63160553 78.85978699 31.95283508 C78.17165782 29.86621341 77.49196494 27.77695704 76.8125 25.6875 C76.34495749 24.26479097 75.87686407 22.84226286 75.40820312 21.41992188 C74.26575581 17.94868432 73.13085327 14.47503438 72 11 C71.01 11.33 70.02 11.66 69 12 C67.00708008 12.02172852 67.00708008 12.02172852 64.76953125 11.87890625 C63.96708984 11.83056641 63.16464844 11.78222656 62.33789062 11.73242188 C61.08782227 11.64831055 61.08782227 11.64831055 59.8125 11.5625 C58.96751953 11.51029297 58.12253906 11.45808594 57.25195312 11.40429688 C55.16763701 11.27476311 53.08376818 11.13806823 51 11 C51 13.31 51 15.62 51 18 C52.28777344 17.98839844 53.57554687 17.97679687 54.90234375 17.96484375 C56.58072772 17.9554673 58.25911326 17.94636695 59.9375 17.9375 C61.21270508 17.92493164 61.21270508 17.92493164 62.51367188 17.91210938 C63.32255859 17.90888672 64.13144531 17.90566406 64.96484375 17.90234375 C65.7137085 17.89710693 66.46257324 17.89187012 67.23413086 17.88647461 C69 18 69 18 70 19 C70.1328125 20.8125 70.1328125 20.8125 70.125 23 C70.12886719 24.0828125 70.12886719 24.0828125 70.1328125 25.1875 C70 27 70 27 69 28 C67.65732587 28.08631874 66.31025678 28.10706473 64.96484375 28.09765625 C64.15595703 28.09443359 63.34707031 28.09121094 62.51367188 28.08789062 C61.66353516 28.07951172 60.81339844 28.07113281 59.9375 28.0625 C59.08349609 28.05798828 58.22949219 28.05347656 57.34960938 28.04882812 C55.23304337 28.03700373 53.11651315 28.01906769 51 28 C51 30.64 51 33.28 51 36 C51.60062256 35.99476318 52.20124512 35.98952637 52.82006836 35.98413086 C55.52586838 35.96341986 58.23165177 35.95035875 60.9375 35.9375 C61.88302734 35.92912109 62.82855469 35.92074219 63.80273438 35.91210938 C65.15141602 35.90727539 65.15141602 35.90727539 66.52734375 35.90234375 C67.77632446 35.89448853 67.77632446 35.89448853 69.05053711 35.88647461 C71 36 71 36 72 37 C72.1328125 38.8125 72.1328125 38.8125 72.125 41 C72.12886719 42.0828125 72.12886719 42.0828125 72.1328125 43.1875 C72 45 72 45 71 46 C68.22221806 46.27027068 65.47247761 46.47566994 62.6875 46.625 C61.87676025 46.66931152 61.06602051 46.71362305 60.23071289 46.75927734 C53.7894212 47.06166144 47.3803192 47.07332472 41 46 C39.07426764 44.07426764 39.5128147 40.64462302 39.28125 38.03125 C39.20934163 36.00819407 39.20934163 36.00819407 38 35 C37.38125 35.81404297 37.38125 35.81404297 36.75 36.64453125 C30.94124268 43.84064802 26.26112473 45.77698856 17.1875 46.75 C11.40063228 47.23972082 5.75581361 46.59837348 0 46 C-0.16774673 40.09196776 -0.3282928 34.18380021 -0.48217773 28.27539062 C-0.5355372 26.26557148 -0.59086175 24.25580351 -0.64819336 22.24609375 C-0.73027321 19.35688306 -0.80527752 16.46756189 -0.87890625 13.578125 C-0.90594131 12.68007141 -0.93297638 11.78201782 -0.96083069 10.85675049 C-0.99097511 9.5958963 -0.99097511 9.5958963 -1.02172852 8.30957031 C-1.05170677 7.20370575 -1.05170677 7.20370575 -1.08229065 6.07550049 C-0.99696802 3.92352855 -0.59489159 2.06470835 0 0 Z M11 11 C11 19.25 11 27.5 11 36 C20.14295076 36.20529959 20.14295076 36.20529959 26.58203125 31.66796875 C29.16418098 28.63056398 28.99318706 24.85612274 29 21 C27.97207415 16.47712627 25.76246197 13.68747284 22 11 C18.37 11 14.74 11 11 11 Z " fill="#02F16A" transform="translate(195,307)"/>
<path d="M0 0 C5.42599527 -0.07446471 10.8516894 -0.12875037 16.27807617 -0.16479492 C18.12187892 -0.17982988 19.96564622 -0.20026333 21.80932617 -0.22631836 C24.4680255 -0.26293561 27.12624971 -0.27977943 29.78515625 -0.29296875 C30.60210464 -0.30845261 31.41905304 -0.32393646 32.26075745 -0.33988953 C37.60061042 -0.34144022 41.26604877 0.47955886 46 3 C49.52848824 6.6189623 50.29323504 9.59099978 50.5 14.5 C50.25928365 21.06174935 47.54101786 24.5240397 43 29 C43.56589844 29.88042969 44.13179688 30.76085937 44.71484375 31.66796875 C45.45613116 32.84089187 46.19699427 34.01408322 46.9375 35.1875 C47.31068359 35.76564453 47.68386719 36.34378906 48.06835938 36.93945312 C50.15834341 40.27213038 51.53461241 43.07744745 52 47 C48.07817172 47.84348145 44.88365579 48.11470592 41 47 C37.61023976 43.18849665 33 37.30099946 33 32 C32.34 32 31.68 32 31 32 C31 31.34 31 30.68 31 30 C28.69 30 26.38 30 24 30 C24 35.61 24 41.22 24 47 C19.77759623 48.05560094 17.23351659 47.7055861 13 47 C11.55073387 47 10.10144741 47.01345586 8.65234375 47.03515625 C7.30849609 47.04869141 7.30849609 47.04869141 5.9375 47.0625 C5.03902344 47.07410156 4.14054687 47.08570313 3.21484375 47.09765625 C1 47 1 47 0 46 C-0.09295815 44.55710213 -0.11746513 43.10970215 -0.11352539 41.66381836 C-0.11344986 40.7429393 -0.11337433 39.82206024 -0.11329651 38.87327576 C-0.10813522 37.87224319 -0.10297394 36.87121063 -0.09765625 35.83984375 C-0.0962413 34.82024063 -0.09482635 33.80063751 -0.09336853 32.75013733 C-0.08775097 29.47922893 -0.0751955 26.20838787 -0.0625 22.9375 C-0.05748726 20.72591244 -0.05292396 18.51432382 -0.04882812 16.30273438 C-0.03777584 10.86846643 -0.02102063 5.43423803 0 0 Z M24 11 C24 13.97 24 16.94 24 20 C26.12472576 20.05386629 28.24983652 20.09273071 30.375 20.125 C32.15003906 20.15980469 32.15003906 20.15980469 33.9609375 20.1953125 C37.11153817 20.32866229 37.11153817 20.32866229 39 18 C39.33333333 15.5 39.33333333 15.5 39 13 C37.11153817 10.67133771 37.11153817 10.67133771 33.9609375 10.8046875 C32.18589844 10.83949219 32.18589844 10.83949219 30.375 10.875 C28.59222656 10.90207031 28.59222656 10.90207031 26.7734375 10.9296875 C25.40058594 10.96449219 25.40058594 10.96449219 24 11 Z " fill="#EBEBEB" transform="translate(308,242)"/>
<path d="M0 0 C5.28 0 10.56 0 16 0 C16 15.51 16 31.02 16 47 C12.04 47 8.08 47 4 47 C3.67 39.74 3.34 32.48 3 25 C1.43676301 31.49007823 1.43676301 31.49007823 -0.11083984 37.98388672 C-0.30887207 38.79100098 -0.5069043 39.59811523 -0.7109375 40.4296875 C-0.90993652 41.25710449 -1.10893555 42.08452148 -1.31396484 42.93701172 C-2 45 -2 45 -4 47 C-6.3828125 47.1953125 -6.3828125 47.1953125 -9.125 47.125 C-10.03507812 47.10695313 -10.94515625 47.08890625 -11.8828125 47.0703125 C-12.58148438 47.04710937 -13.28015625 47.02390625 -14 47 C-15.38651659 42.17517096 -16.74624722 37.344611 -18.0625 32.5 C-18.57490234 30.62828125 -18.57490234 30.62828125 -19.09765625 28.71875 C-20 25 -20 25 -21 18 C-21.33 27.24 -21.66 36.48 -22 46 C-24.97 46 -27.94 46 -31 46 C-31 31.15 -31 16.3 -31 1 C-26.71 1 -22.42 1 -18 1 C-17.67 2.65 -17.34 4.3 -17 6 C-16.34 6 -15.68 6 -15 6 C-13.02 13.59 -11.04 21.18 -9 29 C-6.51602145 22.46633227 -6.51602145 22.46633227 -4.6484375 15.87890625 C-4.43703125 15.00685547 -4.225625 14.13480469 -4.0078125 13.23632812 C-3.79898437 12.35396484 -3.59015625 11.47160156 -3.375 10.5625 C-2.94848187 8.77137773 -2.51896043 6.98096704 -2.0859375 5.19140625 C-1.9007959 4.40967041 -1.7156543 3.62793457 -1.52490234 2.82250977 C-1 1 -1 1 0 0 Z " fill="#E9E9E9" transform="translate(291,242)"/>
<path d="M0 0 C2.6875 0.875 2.6875 0.875 5 2 C4.773125 3.155 4.54625 4.31 4.3125 5.5 C4.22499945 7.77118722 4.22499945 7.77118722 5 10 C7.76438297 12.71943365 10.96602661 14.69463587 14.20996094 16.80175781 C17.64430095 19.10068591 20.91668975 21.60125793 24.1875 24.125 C24.85918213 24.61581055 25.53086426 25.10662109 26.22290039 25.61230469 C29.27969217 27.97972272 30.7895805 29.22244984 31.8203125 33.03125 C30.66394496 37.2161992 28.08515453 38.96726856 24.6875 41.375 C24.05537598 41.84325195 23.42325195 42.31150391 22.77197266 42.79394531 C21.47953962 43.74838743 20.18132249 44.6950468 18.87744141 45.63378906 C17.14226469 46.89647423 15.44802991 48.19655604 13.76171875 49.5234375 C12.80910156 50.25820312 11.85648437 50.99296875 10.875 51.75 C10.02679688 52.40484375 9.17859375 53.0596875 8.3046875 53.734375 C6 55 6 55 3.6953125 54.703125 C2 54 2 54 1.25 52.3125 C1 50 1 50 2.56640625 47.6796875 C5.3583114 44.60545486 8.34875519 42.25647599 11.6875 39.8125 C15.9445504 36.95337007 15.9445504 36.95337007 19 33 C15.61398317 29.52779365 12.1232405 26.32706796 8.375 23.25 C7.43398438 22.47140625 6.49296875 21.6928125 5.5234375 20.890625 C3.07675923 18.85016551 3.07675923 18.85016551 0 18 C-0.17672745 18.54346069 -0.3534549 19.08692139 -0.53553772 19.64685059 C-3.22402899 27.82452949 -6.29551952 35.83819764 -9.4152832 43.859375 C-10.10135415 45.63165668 -10.7809653 47.40645152 -11.4543457 49.18359375 C-12.43258639 51.76381901 -13.43070602 54.33552114 -14.43359375 56.90625 C-14.73164413 57.70405884 -15.02969452 58.50186768 -15.33677673 59.32385254 C-16.21655273 61.54101562 -16.21655273 61.54101562 -18 65 C-19.97084045 65.83728027 -19.97084045 65.83728027 -22 66 C-24.25 64.0625 -24.25 64.0625 -26 62 C-25.34 59.69 -24.68 57.38 -24 55 C-24.84691406 54.78988281 -25.69382813 54.57976562 -26.56640625 54.36328125 C-30.83552875 52.66825992 -33.57309342 50.24840676 -36.9375 47.1875 C-38.1106963 46.13643045 -39.28647332 45.08823421 -40.46484375 44.04296875 C-41.03960449 43.52782715 -41.61436523 43.01268555 -42.20654297 42.48193359 C-44.03604386 40.97021695 -45.93459351 39.75093249 -47.94140625 38.48828125 C-51 36 -51 36 -51.83203125 33.0234375 C-50.67042461 28.80238802 -48.11357638 27.05287245 -44.6875 24.625 C-44.05537598 24.15674805 -43.42325195 23.68849609 -42.77197266 23.20605469 C-41.47953962 22.25161257 -40.18132249 21.3049532 -38.87744141 20.36621094 C-37.14226469 19.10352577 -35.44802991 17.80344396 -33.76171875 16.4765625 C-32.80910156 15.74179688 -31.85648438 15.00703125 -30.875 14.25 C-30.02679688 13.59515625 -29.17859375 12.9403125 -28.3046875 12.265625 C-26 11 -26 11 -23.6953125 11.296875 C-22.85613281 11.64492187 -22.85613281 11.64492187 -22 12 C-21.2578125 14.2578125 -21.2578125 14.2578125 -21 17 C-22.5546875 18.9921875 -22.5546875 18.9921875 -24.875 20.875 C-26.10669922 21.89207031 -26.10669922 21.89207031 -27.36328125 22.9296875 C-28.23339844 23.61289063 -29.10351562 24.29609375 -30 25 C-31.28970703 26.02480469 -31.28970703 26.02480469 -32.60546875 27.0703125 C-34.72283945 28.73323957 -36.85291252 30.37572578 -39 32 C-37.8855373 35.34338811 -37.21476192 35.86238488 -34.47265625 37.8828125 C-33.76302734 38.41003906 -33.05339844 38.93726563 -32.32226562 39.48046875 C-31.57654297 40.02316406 -30.83082031 40.56585938 -30.0625 41.125 C-29.32064453 41.67542969 -28.57878906 42.22585937 -27.81445312 42.79296875 C-24.05166409 45.62778258 -24.05166409 45.62778258 -20 48 C-19.82452637 46.95295898 -19.82452637 46.95295898 -19.64550781 45.88476562 C-18.93468034 42.70808734 -17.87627599 39.86803295 -16.671875 36.84375 C-16.20136719 35.65523437 -15.73085937 34.46671875 -15.24609375 33.2421875 C-14.74756486 31.9947241 -14.24886639 30.74732847 -13.75 29.5 C-12.78599594 27.07310029 -11.82245218 24.64601768 -10.859375 22.21875 C-10.38306641 21.02765625 -9.90675781 19.8365625 -9.41601562 18.609375 C-8.45986136 16.17217076 -7.53206035 13.72367958 -6.63085938 11.265625 C-5.98600586 9.50992188 -5.98600586 9.50992188 -5.328125 7.71875 C-4.95075195 6.66623047 -4.57337891 5.61371094 -4.18457031 4.52929688 C-3 2 -3 2 0 0 Z " fill="#0A1015" transform="translate(260,163)"/>
<path d="M0 0 C3.31232698 -0.08834684 6.62434435 -0.14083584 9.9375 -0.1875 C10.86369141 -0.21263672 11.78988281 -0.23777344 12.74414062 -0.26367188 C20.29230694 -0.34312626 27.22071923 0.68487221 33.4375 5.25 C38.26011985 10.42549448 38.36300612 16.81594044 38.375 23.5625 C38.39949219 24.29146484 38.42398438 25.02042969 38.44921875 25.77148438 C38.48165894 31.77832622 36.62321889 35.23906212 32.4375 39.64453125 C29.65871397 41.9022949 27.51945027 43.34824995 24 44 C23.67 44.66 23.34 45.32 23 46 C20.6640625 46.44921875 20.6640625 46.44921875 17.625 46.6875 C16.64789063 46.77386719 15.67078125 46.86023438 14.6640625 46.94921875 C9.73349348 47.01755286 4.8992796 46.5178861 0 46 C-0.16774673 40.09196776 -0.3282928 34.18380021 -0.48217773 28.27539062 C-0.5355372 26.26557148 -0.59086175 24.25580351 -0.64819336 22.24609375 C-0.73027321 19.35688306 -0.80527752 16.46756189 -0.87890625 13.578125 C-0.90594131 12.68007141 -0.93297638 11.78201782 -0.96083069 10.85675049 C-0.99097511 9.5958963 -0.99097511 9.5958963 -1.02172852 8.30957031 C-1.05170677 7.20370575 -1.05170677 7.20370575 -1.08229065 6.07550049 C-0.99696802 3.92352855 -0.59489159 2.06470835 0 0 Z M11 11 C11 19.25 11 27.5 11 36 C20.14295076 36.20529959 20.14295076 36.20529959 26.58203125 31.66796875 C29.16418098 28.63056398 28.99318706 24.85612274 29 21 C27.97207415 16.47712627 25.76246197 13.68747284 22 11 C18.37 11 14.74 11 11 11 Z " fill="#02CF5B" transform="translate(195,307)"/>
<path d="M0 0 C3.96 0 7.92 0 12 0 C12.2673999 0.86802246 12.5347998 1.73604492 12.81030273 2.63037109 C13.80224207 5.84743669 14.79573222 9.06401472 15.7902832 12.28027344 C16.22059515 13.6729843 16.65028613 15.06588718 17.0793457 16.45898438 C17.69579939 18.46014271 18.31447529 20.46060223 18.93359375 22.4609375 C19.4913147 24.26763916 19.4913147 24.26763916 20.06030273 26.11083984 C20.88882011 28.90150475 20.88882011 28.90150475 22 31 C22.2673999 30.09644775 22.5347998 29.19289551 22.81030273 28.26196289 C23.80106747 24.91972001 24.79468885 21.57835474 25.7902832 18.23754883 C26.22112616 16.78964996 26.65081734 15.34140786 27.0793457 13.89282227 C27.69442278 11.81435949 28.31359041 9.73715405 28.93359375 7.66015625 C29.30540771 6.40855713 29.67722168 5.15695801 30.06030273 3.86743164 C31 1 31 1 32 0 C34.01964199 -0.07244053 36.04167124 -0.08377188 38.0625 -0.0625 C39.71958984 -0.04896484 39.71958984 -0.04896484 41.41015625 -0.03515625 C42.26480469 -0.02355469 43.11945313 -0.01195312 44 0 C41.66717409 9.00088207 38.921061 17.86232789 36.12890625 26.72851562 C35.36595185 29.15376187 34.60862758 31.58072225 33.8515625 34.0078125 C33.36752397 35.54958484 32.88316126 37.09125545 32.3984375 38.6328125 C32.17239838 39.35872589 31.94635925 40.08463928 31.71347046 40.83255005 C30.11462406 45.88537594 30.11462406 45.88537594 29 47 C26.64686445 47.07271741 24.29166332 47.08370868 21.9375 47.0625 C20.64714844 47.05347656 19.35679687 47.04445313 18.02734375 47.03515625 C17.02832031 47.02355469 16.02929688 47.01195312 15 47 C13.5393715 44.35261084 13 43.10551666 13 40 C12.34 39.67 11.68 39.34 11 39 C10.2956543 36.73876953 10.2956543 36.73876953 9.63671875 33.7578125 C8.04630503 27.00180708 5.98150102 20.46437019 3.8125 13.875 C3.08723689 11.66491627 2.36444516 9.45401947 1.64453125 7.2421875 C1.32846924 6.2816748 1.01240723 5.32116211 0.68676758 4.33154297 C0 2 0 2 0 0 Z " fill="#D5D5D5" transform="translate(141,242)"/>
<path d="M0 0 C9.24 0 18.48 0 28 0 C28 2.31 28 4.62 28 7 C21.07 7 14.14 7 7 7 C7 10.3 7 13.6 7 17 C13.27 17 19.54 17 26 17 C26 19.31 26 21.62 26 24 C19.73 24 13.46 24 7 24 C7 27.96 7 31.92 7 36 C13.6 36 20.2 36 27 36 C27 37.98 27 39.96 27 42 C18.09 42 9.18 42 0 42 C0 28.14 0 14.28 0 0 Z " fill="#02F76D" transform="translate(238,309)"/>
<path d="M0 0 C1.72974441 0.00015918 3.45949355 0.0058569 5.18920898 0.01586914 C6.09783188 0.01728409 7.00645477 0.01869904 7.94261169 0.02015686 C10.85687494 0.02577346 13.77106254 0.03832874 16.68530273 0.05102539 C18.65600475 0.05603825 20.62670797 0.06060153 22.59741211 0.06469727 C27.43923832 0.07574828 32.28100768 0.09302401 37.12280273 0.11352539 C36.79280273 1.10352539 36.46280273 2.09352539 36.12280273 3.11352539 C33.15280273 2.78352539 30.18280273 2.45352539 27.12280273 2.11352539 C27.43733398 2.96172852 27.75186523 3.80993164 28.07592773 4.68383789 C36.62324956 28.11173808 36.62324956 28.11173808 35.12280273 34.11352539 C32.48280273 26.52352539 29.84280273 18.93352539 27.12280273 11.11352539 C26.13280273 11.44352539 25.14280273 11.77352539 24.12280273 12.11352539 C22.12988281 12.13525391 22.12988281 12.13525391 19.89233398 11.99243164 C19.08989258 11.9440918 18.28745117 11.89575195 17.46069336 11.84594727 C16.210625 11.76183594 16.210625 11.76183594 14.93530273 11.67602539 C14.09032227 11.62381836 13.2453418 11.57161133 12.37475586 11.51782227 C10.29043975 11.3882885 8.20657091 11.25159362 6.12280273 11.11352539 C6.12280273 13.42352539 6.12280273 15.73352539 6.12280273 18.11352539 C7.41057617 18.10192383 8.69834961 18.09032227 10.02514648 18.07836914 C11.70353046 18.06899269 13.38191599 18.05989234 15.06030273 18.05102539 C16.33550781 18.03845703 16.33550781 18.03845703 17.63647461 18.02563477 C18.44536133 18.02241211 19.25424805 18.01918945 20.08764648 18.01586914 C20.83651123 18.01063232 21.58537598 18.00539551 22.35693359 18 C24.12280273 18.11352539 24.12280273 18.11352539 25.12280273 19.11352539 C25.25561523 20.92602539 25.25561523 20.92602539 25.24780273 23.11352539 C25.25166992 24.19633789 25.25166992 24.19633789 25.25561523 25.30102539 C25.12280273 27.11352539 25.12280273 27.11352539 24.12280273 28.11352539 C22.7801286 28.19984413 21.43305952 28.22059012 20.08764648 28.21118164 C19.27875977 28.20795898 18.46987305 28.20473633 17.63647461 28.20141602 C16.78633789 28.19303711 15.93620117 28.1846582 15.06030273 28.17602539 C14.20629883 28.17151367 13.35229492 28.16700195 12.47241211 28.16235352 C10.3558461 28.15052912 8.23931588 28.13259308 6.12280273 28.11352539 C6.12280273 30.75352539 6.12280273 33.39352539 6.12280273 36.11352539 C6.72342529 36.10828857 7.32404785 36.10305176 7.94287109 36.09765625 C10.64867111 36.07694525 13.3544545 36.06388414 16.06030273 36.05102539 C17.00583008 36.04264648 17.95135742 36.03426758 18.92553711 36.02563477 C20.27421875 36.02080078 20.27421875 36.02080078 21.65014648 36.01586914 C22.8991272 36.00801392 22.8991272 36.00801392 24.17333984 36 C26.12280273 36.11352539 26.12280273 36.11352539 27.12280273 37.11352539 C27.25561523 38.92602539 27.25561523 38.92602539 27.24780273 41.11352539 C27.25166992 42.19633789 27.25166992 42.19633789 27.25561523 43.30102539 C27.12280273 45.11352539 27.12280273 45.11352539 26.12280273 46.11352539 C23.3450208 46.38379607 20.59528034 46.58919533 17.81030273 46.73852539 C16.99956299 46.78283691 16.18882324 46.82714844 15.35351562 46.87280273 C8.91222393 47.17518683 2.50312193 47.18685012 -3.87719727 46.11352539 C-5.80292963 44.18779303 -5.36438257 40.75814841 -5.59594727 38.14477539 C-5.66785564 36.12171946 -5.66785564 36.12171946 -6.87719727 35.11352539 C-7.32450195 35.66782227 -7.77180664 36.22211914 -8.23266602 36.79321289 C-14.4592375 44.25447766 -14.4592375 44.25447766 -18.87719727 45.11352539 C-19.86719727 44.78352539 -20.85719727 44.45352539 -21.87719727 44.11352539 C-21.34610352 43.87118164 -20.81500977 43.62883789 -20.26782227 43.37915039 C-14.68583486 40.73076221 -10.16027139 38.13966526 -7.87719727 32.11352539 C-7.71012036 29.26189077 -7.64350637 26.52284312 -7.68969727 23.67602539 C-7.69066406 22.54970703 -7.69066406 22.54970703 -7.69165039 21.40063477 C-7.7224237 17.51293941 -7.93393576 13.90920969 -8.87719727 10.11352539 C-7.88719727 10.44352539 -6.89719727 10.77352539 -5.87719727 11.11352539 C-5.78631836 10.04811523 -5.78631836 10.04811523 -5.69360352 8.96118164 C-5.60981445 8.04208008 -5.52602539 7.12297852 -5.43969727 6.17602539 C-5.35848633 5.25950195 -5.27727539 4.34297852 -5.19360352 3.39868164 C-4.65671105 -0.47887509 -4.18886237 0.12265103 0 0 Z M-1.87719727 2.11352539 C-1.87719727 15.97352539 -1.87719727 29.83352539 -1.87719727 44.11352539 C7.03280273 44.11352539 15.94280273 44.11352539 25.12280273 44.11352539 C25.12280273 42.13352539 25.12280273 40.15352539 25.12280273 38.11352539 C18.52280273 38.11352539 11.92280273 38.11352539 5.12280273 38.11352539 C5.12280273 34.15352539 5.12280273 30.19352539 5.12280273 26.11352539 C11.39280273 26.11352539 17.66280273 26.11352539 24.12280273 26.11352539 C24.12280273 23.80352539 24.12280273 21.49352539 24.12280273 19.11352539 C17.85280273 19.11352539 11.58280273 19.11352539 5.12280273 19.11352539 C5.12280273 15.81352539 5.12280273 12.51352539 5.12280273 9.11352539 C12.05280273 9.11352539 18.98280273 9.11352539 26.12280273 9.11352539 C26.12280273 6.80352539 26.12280273 4.49352539 26.12280273 2.11352539 C16.88280273 2.11352539 7.64280273 2.11352539 -1.87719727 2.11352539 Z " fill="#02441F" transform="translate(239.877197265625,306.886474609375)"/>
<path d="M0 0 C2.97 0 5.94 0 9 0 C9 12.21 9 24.42 9 37 C15.93 37 22.86 37 30 37 C30 39.64 30 42.28 30 45 C20.1 45 10.2 45 0 45 C0 30.15 0 15.3 0 0 Z " fill="#F0F0F0" transform="translate(228,243)"/>
<path d="M0 0 C0.55945313 0.23203125 1.11890625 0.4640625 1.6953125 0.703125 C2.4375 2.9609375 2.4375 2.9609375 2.6953125 5.703125 C1.140625 7.6953125 1.140625 7.6953125 -1.1796875 9.578125 C-2.41138672 10.59519531 -2.41138672 10.59519531 -3.66796875 11.6328125 C-4.53808594 12.31601563 -5.40820312 12.99921875 -6.3046875 13.703125 C-7.16449219 14.38632813 -8.02429688 15.06953125 -8.91015625 15.7734375 C-11.02752695 17.43636457 -13.15760002 19.07885078 -15.3046875 20.703125 C-14.14126661 24.19338768 -13.25564733 24.67960969 -10.3046875 26.703125 C-6.41579861 29.36979167 -6.41579861 29.36979167 -5.3046875 32.703125 C-3.67586353 34.14260618 -3.67586353 34.14260618 -1.7421875 35.390625 C-1.10152344 35.82761719 -0.46085937 36.26460937 0.19921875 36.71484375 C0.69292969 37.04097656 1.18664062 37.36710937 1.6953125 37.703125 C1.3653125 39.023125 1.0353125 40.343125 0.6953125 41.703125 C-0.6246875 41.703125 -1.9446875 41.703125 -3.3046875 41.703125 C-3.3046875 41.043125 -3.3046875 40.383125 -3.3046875 39.703125 C-3.8409375 39.64125 -4.3771875 39.579375 -4.9296875 39.515625 C-8.34165038 38.34837454 -10.55463088 36.00419278 -13.3046875 33.703125 C-14.97116631 33.03598888 -16.6378488 32.36936143 -18.3046875 31.703125 C-20.76171875 30.1875 -20.76171875 30.1875 -23.1171875 28.453125 C-23.90738281 27.89109375 -24.69757813 27.3290625 -25.51171875 26.75 C-27.3046875 24.703125 -27.3046875 24.703125 -27.9609375 21.8046875 C-27.03743508 17.44003914 -24.4596192 15.78530369 -20.9921875 13.328125 C-20.04400146 12.62574707 -20.04400146 12.62574707 -19.07666016 11.90917969 C-17.78422712 10.95473757 -16.48600999 10.0080782 -15.18212891 9.06933594 C-13.44695219 7.80665077 -11.75271741 6.50656896 -10.06640625 5.1796875 C-8.63748047 4.07753906 -8.63748047 4.07753906 -7.1796875 2.953125 C-6.33148438 2.29828125 -5.48328125 1.6434375 -4.609375 0.96875 C-2.3046875 -0.296875 -2.3046875 -0.296875 0 0 Z " fill="#1A3645" transform="translate(236.3046875,174.296875)"/>
<path d="M0 0 C2.97 0 5.94 0 9 0 C9 14.85 9 29.7 9 45 C6.03 45 3.06 45 0 45 C0 30.15 0 15.3 0 0 Z " fill="#F2F2F2" transform="translate(309,243)"/>
<path d="M0 0 C2.475 0.495 2.475 0.495 5 1 C4.22265613 6.02874305 2.24988369 10.48232706 0.25976562 15.12109375 C-1.0929246 18.37694864 -2.14371536 21.45362682 -2.79296875 24.921875 C-4.21105487 31.77387934 -6.9351778 38.22935952 -9.48535156 44.72314453 C-10.38146574 47.01654762 -11.25333164 49.31830619 -12.125 51.62109375 C-12.69385485 53.08129786 -13.26411653 54.54095487 -13.8359375 56 C-14.09337738 56.68843994 -14.35081726 57.37687988 -14.61605835 58.08618164 C-16.48136617 62.73311224 -16.48136617 62.73311224 -19.05712891 64.05859375 C-21 64 -21 64 -23.25 62.0625 C-23.8275 61.381875 -24.405 60.70125 -25 60 C-24.67 59.01 -24.34 58.02 -24 57 C-23.01 56.505 -23.01 56.505 -22 56 C-21.27840576 54.35636866 -20.60648579 52.68949614 -20 51 C-19.34 51 -18.68 51 -18 51 C-17.85957275 50.47752686 -17.71914551 49.95505371 -17.57446289 49.41674805 C-15.09439801 40.67135204 -11.73125622 32.27455917 -8.4375 23.8125 C-7.54890009 21.52728702 -6.66149991 19.24164445 -5.77784729 16.95451355 C-5.23207025 15.54200758 -4.68354106 14.13056058 -4.13169861 12.72041321 C-2.51133801 8.52839195 -1.17538752 4.33856794 0 0 Z " fill="#1C3C4C" transform="translate(259,165)"/>
<path d="M0 0 C3.63 0 7.26 0 11 0 C11 12.21 11 24.42 11 37 C17.27 37 23.54 37 30 37 C29.98839844 34.91558594 29.97679687 32.83117187 29.96484375 30.68359375 C29.95702504 28.64477694 29.95096432 26.60596185 29.94506836 24.56713867 C29.9400673 23.15990439 29.9332643 21.75267523 29.92456055 20.34545898 C29.91230841 18.31232431 29.9067293 16.27925886 29.90234375 14.24609375 C29.89710693 13.02591553 29.89187012 11.8057373 29.88647461 10.54858398 C30.00112357 6.96487943 30.42672037 3.53687745 31 0 C33.64590014 -0.02684679 36.29153096 -0.04676357 38.9375 -0.0625 C39.69224609 -0.07087891 40.44699219 -0.07925781 41.22460938 -0.08789062 C43.14994313 -0.09652441 45.07535581 -0.05224333 47 0 C48 1 48 1 48.0625 3.5625 C48.041875 4.366875 48.02125 5.17125 48 6 C47.34 4.68 46.68 3.36 46 2 C41.71 1.67 37.42 1.34 33 1 C33 15.85 33 30.7 33 46 C35.97 46 38.94 46 42 46 C42 35.44 42 24.88 42 14 C44.15409173 18.30818346 44.18259389 20.0368594 43.9765625 24.734375 C43.925 26.02988281 43.8734375 27.32539063 43.8203125 28.66015625 C43.75544062 30.02344857 43.69033347 31.38672972 43.625 32.75 C43.56672442 34.12886502 43.50942192 35.50777153 43.453125 36.88671875 C43.31165822 40.25834372 43.16024172 43.62922366 43 47 C31.29818878 48.06178796 19.79405277 47.9535889 8.0625 47.5625 C6.30015009 47.50910529 4.53778016 47.4563671 2.77539062 47.40429688 C-1.48334083 47.27707251 -5.74170524 47.14105821 -10 47 C-10 46.67 -10 46.34 -10 46 C-7.03 46 -4.06 46 -1 46 C-1.34224609 45.07767578 -1.34224609 45.07767578 -1.69140625 44.13671875 C-1.97886719 43.32847656 -2.26632813 42.52023437 -2.5625 41.6875 C-2.99755859 40.48673828 -2.99755859 40.48673828 -3.44140625 39.26171875 C-4 37 -4 37 -3 34 C-2.34 35.65 -1.68 37.3 -1 39 C-1.00523682 37.92516357 -1.01047363 36.85032715 -1.01586914 35.74291992 C-1.03396401 31.75660026 -1.04544846 27.77028424 -1.05493164 23.78393555 C-1.05996158 22.0583434 -1.06678626 20.33275552 -1.07543945 18.60717773 C-1.08756361 16.1274307 -1.09324169 13.64774 -1.09765625 11.16796875 C-1.10539818 10.01001045 -1.10539818 10.01001045 -1.11329651 8.82865906 C-1.11363318 5.6169772 -1.02326578 3.06979734 0 0 Z M1 1 C1 15.85 1 30.7 1 46 C10.9 46 20.8 46 31 46 C31 43.36 31 40.72 31 38 C24.07 38 17.14 38 10 38 C10 25.79 10 13.58 10 1 C7.03 1 4.06 1 1 1 Z " fill="#3B3D3C" transform="translate(227,242)"/>
<path d="M0 0 C5.42599527 -0.07446471 10.8516894 -0.12875037 16.27807617 -0.16479492 C18.12187892 -0.17982988 19.96564622 -0.20026333 21.80932617 -0.22631836 C24.4680255 -0.26293561 27.12624971 -0.27977943 29.78515625 -0.29296875 C30.60210464 -0.30845261 31.41905304 -0.32393646 32.26075745 -0.33988953 C37.57935404 -0.34143404 41.33887604 0.35276225 46 3 C47.4375 5.1875 47.4375 5.1875 48 7 C47.42459473 6.64848877 46.84918945 6.29697754 46.25634766 5.93481445 C39.22447695 1.99025923 33.34545667 1.23337075 25.375 1.1875 C19.744375 1.0946875 19.744375 1.0946875 14 1 C14 15.85 14 30.7 14 46 C16.97 46 19.94 46 23 46 C23 40.39 23 34.78 23 29 C25.64 29 28.28 29 31 29 C31 29.33 31 29.66 31 30 C28.69 30 26.38 30 24 30 C24 35.61 24 41.22 24 47 C19.77759623 48.05560094 17.23351659 47.7055861 13 47 C11.55073387 47 10.10144741 47.01345586 8.65234375 47.03515625 C7.30849609 47.04869141 7.30849609 47.04869141 5.9375 47.0625 C5.03902344 47.07410156 4.14054687 47.08570313 3.21484375 47.09765625 C1 47 1 47 0 46 C-0.09295815 44.55710213 -0.11746513 43.10970215 -0.11352539 41.66381836 C-0.11344986 40.7429393 -0.11337433 39.82206024 -0.11329651 38.87327576 C-0.10813522 37.87224319 -0.10297394 36.87121063 -0.09765625 35.83984375 C-0.0962413 34.82024063 -0.09482635 33.80063751 -0.09336853 32.75013733 C-0.08775097 29.47922893 -0.0751955 26.20838787 -0.0625 22.9375 C-0.05748726 20.72591244 -0.05292396 18.51432382 -0.04882812 16.30273438 C-0.03777584 10.86846643 -0.02102063 5.43423803 0 0 Z M1 1 C1 15.85 1 30.7 1 46 C3.97 46 6.94 46 10 46 C10 31.15 10 16.3 10 1 C7.03 1 4.06 1 1 1 Z " fill="#232626" transform="translate(308,242)"/>
<path d="M0 0 C7.49338372 0.89206949 12.51992913 4.12602533 18.125 9 C22.07378464 12.44718966 22.07378464 12.44718966 26.3671875 15.4375 C28 17 28 17 28.625 19.86328125 C27.76846242 24.16202921 25.41411964 25.78223565 22 28.1875 C21.40711182 28.62457275 20.81422363 29.06164551 20.20336914 29.51196289 C15.97013501 32.54525237 11.98829215 34.45816425 7 36 C5.64136599 36.96534522 4.29656863 37.95277149 3 39 C2.34 39 1.68 39 1 39 C2.5687868 34.45481632 6.18525219 32.22171907 9.875 29.4375 C10.81279297 28.71530273 10.81279297 28.71530273 11.76953125 27.97851562 C14.82801463 25.62807438 17.90856471 23.30692533 21 21 C19.66690132 17.00070396 17.64341367 16.01651745 14.25 13.5625 C8.14347105 9.11796969 8.14347105 9.11796969 5.296875 6.77734375 C3.04237454 4.83052316 3.04237454 4.83052316 0 4 C0 2.68 0 1.36 0 0 Z " fill="#142733" transform="translate(263,176)"/>
<path d="M0 0 C5.28 0 10.56 0 16 0 C16 15.51 16 31.02 16 47 C12.04 47 8.08 47 4 47 C3.67 39.74 3.34 32.48 3 25 C1.43676301 31.49007823 1.43676301 31.49007823 -0.11083984 37.98388672 C-0.30887207 38.79100098 -0.5069043 39.59811523 -0.7109375 40.4296875 C-0.90993652 41.25710449 -1.10893555 42.08452148 -1.31396484 42.93701172 C-2 45 -2 45 -4 47 C-6.3828125 47.1953125 -6.3828125 47.1953125 -9.125 47.125 C-10.03507812 47.10695313 -10.94515625 47.08890625 -11.8828125 47.0703125 C-12.58148438 47.04710937 -13.28015625 47.02390625 -14 47 C-14.47260088 45.34696616 -14.94500996 43.69387726 -15.41650391 42.04052734 C-15.97582027 40.08455825 -16.54052364 38.13013201 -17.10546875 36.17578125 C-17.46682338 34.88821079 -17.82749802 33.60044931 -18.1875 32.3125 C-18.37763672 31.66216797 -18.56777344 31.01183594 -18.76367188 30.34179688 C-19.71075678 26.91341941 -20.34147693 24.37505341 -19 21 C-18.74605469 21.90621094 -18.49210937 22.81242187 -18.23046875 23.74609375 C-16.30667724 30.55501876 -14.30720442 37.30910718 -12 44 C-9.69 44 -7.38 44 -5 44 C-4.83395264 43.44650879 -4.66790527 42.89301758 -4.49682617 42.32275391 C-1.66455078 32.88183594 1.16772461 23.44091797 4 14 C4.33 14 4.66 14 5 14 C5 24.56 5 35.12 5 46 C7.97 46 10.94 46 14 46 C14 31.15 14 16.3 14 1 C7.565 1.495 7.565 1.495 1 2 C0.34 4.31 -0.32 6.62 -1 9 C-2.48576635 4.98843085 -1.80747878 4.51869696 0 0 Z " fill="#393B3B" transform="translate(291,242)"/>
<path d="M0 0 C0.33 0 0.66 0 1 0 C1 13.86 1 27.72 1 42 C9.91 42 18.82 42 28 42 C28 40.02 28 38.04 28 36 C21.4 36 14.8 36 8 36 C8 32.04 8 28.08 8 24 C14.27 24 20.54 24 27 24 C27 21.69 27 19.38 27 17 C27.33 17 27.66 17 28 17 C28.09765625 23.15234375 28.09765625 23.15234375 28 25 C27 26 27 26 25.23413086 26.11352539 C24.48526611 26.10828857 23.73640137 26.10305176 22.96484375 26.09765625 C22.15595703 26.09443359 21.34707031 26.09121094 20.51367188 26.08789062 C19.66353516 26.07951172 18.81339844 26.07113281 17.9375 26.0625 C17.08349609 26.05798828 16.22949219 26.05347656 15.34960938 26.04882812 C13.23304337 26.03700373 11.11651315 26.01906769 9 26 C9 28.64 9 31.28 9 34 C9.60062256 33.99476318 10.20124512 33.98952637 10.82006836 33.98413086 C13.52586838 33.96341986 16.23165177 33.95035875 18.9375 33.9375 C19.88302734 33.92912109 20.82855469 33.92074219 21.80273438 33.91210938 C23.15141602 33.90727539 23.15141602 33.90727539 24.52734375 33.90234375 C25.35999756 33.89710693 26.19265137 33.89187012 27.05053711 33.88647461 C29 34 29 34 30 35 C30 37.64 30 40.28 30 43 C20.1 43 10.2 43 0 43 C0 28.81 0 14.62 0 0 Z " fill="#039744" transform="translate(237,309)"/>
<path d="M0 0 C2.64590014 -0.02684679 5.29153096 -0.04676357 7.9375 -0.0625 C8.69224609 -0.07087891 9.44699219 -0.07925781 10.22460938 -0.08789062 C12.14994313 -0.09652441 14.07535581 -0.05224333 16 0 C17 1 17 1 17.0625 3.5625 C17.041875 4.366875 17.02125 5.17125 17 6 C16.34 4.68 15.68 3.36 15 2 C10.71 1.67 6.42 1.34 2 1 C2 15.85 2 30.7 2 46 C4.97 46 7.94 46 11 46 C11 35.44 11 24.88 11 14 C13.15409173 18.30818346 13.18259389 20.0368594 12.9765625 24.734375 C12.925 26.02988281 12.8734375 27.32539063 12.8203125 28.66015625 C12.75544062 30.02344857 12.69033347 31.38672972 12.625 32.75 C12.56672442 34.12886502 12.50942192 35.50777153 12.453125 36.88671875 C12.31165822 40.25834372 12.16024172 43.62922366 12 47 C8.04 47 4.08 47 0 47 C-0.72993315 37.28928226 -1.10625968 27.61449966 -1.125 17.875 C-1.12951172 16.90425537 -1.13402344 15.93351074 -1.13867188 14.93334961 C-1.12808954 9.84721665 -0.87470431 5.01219452 0 0 Z " fill="#222524" transform="translate(258,242)"/>
<path d="M0 0 C0.66 0 1.32 0 2 0 C1.36582853 3.62109873 0.39002335 6.88625455 -0.92578125 10.31640625 C-1.31056641 11.32896484 -1.69535156 12.34152344 -2.09179688 13.38476562 C-2.49462891 14.43341797 -2.89746094 15.48207031 -3.3125 16.5625 C-6.0965976 23.83234299 -8.75502639 31.10862728 -11.14331055 38.51928711 C-12.1706739 41.49421986 -13.59330519 44.18661038 -15 47 C-16.02166883 50.15151876 -16.99950836 53.31083455 -17.9375 56.48828125 C-18.288125 57.31714844 -18.63875 58.14601562 -19 59 C-20.485 59.495 -20.485 59.495 -22 60 C-21.42557868 53.8884062 -19.56809641 48.69811344 -17.32421875 43.0078125 C-16.95778763 42.06243622 -16.59135651 41.11705994 -16.21382141 40.14303589 C-15.43971517 38.14983436 -14.66207055 36.15800384 -13.88110352 34.16748047 C-12.69513691 31.1444664 -11.51945238 28.11761966 -10.34570312 25.08984375 C-9.58914087 23.14560006 -8.83199815 21.20158212 -8.07421875 19.2578125 C-7.7261467 18.36377716 -7.37807465 17.46974182 -7.01945496 16.5486145 C-4.82572935 10.96281473 -2.48553924 5.46220533 0 0 Z " fill="#0BD16D" transform="translate(260,166)"/>
<path d="M0 0 C-1.38362065 3.22014995 -2.89710887 5.01846813 -5.625 7.19921875 C-6.68460938 8.05290039 -6.68460938 8.05290039 -7.765625 8.92382812 C-8.50296875 9.50583984 -9.2403125 10.08785156 -10 10.6875 C-10.73734375 11.28111328 -11.4746875 11.87472656 -12.234375 12.48632812 C-17.66726824 16.83363412 -17.66726824 16.83363412 -20 18 C-18.67389358 21.97831925 -16.06672991 23.48545521 -12.8125 25.875 C-3.81362211 32.58567975 -3.81362211 32.58567975 0 36 C0 36.66 0 37.32 0 38 C-4.62192061 36.53095088 -7.80830913 33.8498231 -11.375 30.6875 C-15.77281084 26.87026235 -20.16498 23.26082744 -25 20 C-23.85707315 16.57121945 -23.07681848 16.03698015 -20.25 13.9375 C-19.44949219 13.33679688 -18.64898437 12.73609375 -17.82421875 12.1171875 C-16.42623047 11.06917969 -16.42623047 11.06917969 -15 10 C-13.85869394 9.10930615 -12.71947057 8.21593901 -11.58203125 7.3203125 C-10.99969727 6.86406494 -10.41736328 6.40781738 -9.81738281 5.93774414 C-8.65693006 5.02833536 -7.49868269 4.11610461 -6.34277344 3.20092773 C-2.22543356 0 -2.22543356 0 0 0 Z " fill="#08DC6D" transform="translate(236,177)"/>
<path d="M0 0 C3.8413481 1.67825888 6.9792768 4.17732887 10.25 6.75 C11.40465886 7.64880897 12.5596065 8.54724706 13.71484375 9.4453125 C14.27413574 9.88133789 14.83342773 10.31736328 15.40966797 10.76660156 C18.57417963 13.22087128 21.78882309 15.60735838 25 18 C23.6402177 21.17325097 22.26411511 22.85234792 19.48046875 24.875 C18.78759766 25.38546875 18.09472656 25.8959375 17.38085938 26.421875 C16.65705078 26.94265625 15.93324219 27.4634375 15.1875 28 C13.76384217 29.04100953 12.34065443 30.08266229 10.91796875 31.125 C9.90549072 31.85976562 9.90549072 31.85976562 8.87255859 32.609375 C7.24848053 33.81547 5.67546144 35.08974214 4.11328125 36.375 C2 38 2 38 0 38 C1.5687868 33.45481632 5.18525219 31.22171907 8.875 28.4375 C9.81279297 27.71530273 9.81279297 27.71530273 10.76953125 26.97851562 C13.82801463 24.62807438 16.90856471 22.30692533 20 20 C18.67783889 16.03351667 16.74945188 15.11157895 13.375 12.6875 C8.73708539 9.3002202 4.20601214 5.91923859 0 2 C0 1.34 0 0.68 0 0 Z " fill="#08DE6D" transform="translate(264,177)"/>
<path d="M0 0 C0.33 0 0.66 0 1 0 C1 14.52 1 29.04 1 44 C0.67 44 0.34 44 0 44 C-0.06058594 43.36191406 -0.12117188 42.72382813 -0.18359375 42.06640625 C-0.26738281 41.24011719 -0.35117188 40.41382813 -0.4375 39.5625 C-0.51871094 38.73878906 -0.59992188 37.91507812 -0.68359375 37.06640625 C-0.78930815 35.01337975 -0.78930815 35.01337975 -2 34 C-2.44730469 34.55429687 -2.89460937 35.10859375 -3.35546875 35.6796875 C-9.58204024 43.14095227 -9.58204024 43.14095227 -14 44 C-14.99 43.67 -15.98 43.34 -17 43 C-16.46890625 42.75765625 -15.9378125 42.5153125 -15.390625 42.265625 C-9.80863759 39.61723681 -5.28307413 37.02613987 -3 31 C-2.8329231 28.14836538 -2.76630911 25.40931773 -2.8125 22.5625 C-2.8134668 21.43618164 -2.8134668 21.43618164 -2.81445312 20.28710938 C-2.84522644 16.39941402 -3.05673849 12.7956843 -4 9 C-3.01 9.33 -2.02 9.66 -1 10 C-0.67 6.7 -0.34 3.4 0 0 Z " fill="#032C16" transform="translate(235,308)"/>
<path d="M0 0 C3.47899158 1.39159663 4.48052501 2.63251488 6 6 C1.03924854 10.52438906 -3.8962463 14.81889632 -9.46875 18.578125 C-11.31818836 20.29546062 -11.62187808 21.54220752 -12 24 C-10.96875 23.195625 -9.9375 22.39125 -8.875 21.5625 C-5.62872304 19.22200704 -3.05097617 18.29641289 1 18 C-2.38232729 21.58128772 -5.67246241 24.60604303 -10 27 C-12.375 26.75 -12.375 26.75 -14 26 C-14.75 24.3125 -14.75 24.3125 -15 22 C-12.0812341 17.67644154 -8.46056441 14.84890153 -4.3125 11.8125 C-0.0554496 8.95337007 -0.0554496 8.95337007 3 5 C1.60907108 2.37612865 1.60907108 2.37612865 0 0 Z " fill="#152E3B" transform="translate(276,191)"/>
<path d="M0 0 C1.41930893 4.2579268 -0.25632707 7.28026827 -1.75 11.3125 C-2.01554687 12.05951172 -2.28109375 12.80652344 -2.5546875 13.57617188 C-4.10965678 17.87498257 -5.86183657 21.94908194 -8 26 C-8.061875 25.071875 -8.061875 25.071875 -8.125 24.125 C-8.558125 23.073125 -8.558125 23.073125 -9 22 C-9.825 21.7525 -10.65 21.505 -11.5 21.25 C-16.67843912 19.40055746 -20.06951121 15.7558004 -24 12 C-19.72159739 12 -18.17965543 14.28404432 -15 17 C-14.01 17.33 -13.02 17.66 -12 18 C-12 18.66 -12 19.32 -12 20 C-10.68 19.67 -9.36 19.34 -8 19 C-8 18.01 -8 17.02 -8 16 C-9.5354878 14.53909212 -9.5354878 14.53909212 -11.5 13.3125 C-12.1496875 12.87550781 -12.799375 12.43851563 -13.46875 11.98828125 C-13.9740625 11.66214844 -14.479375 11.33601562 -15 11 C-14.67 10.34 -14.34 9.68 -14 9 C-11.03 10.98 -8.06 12.96 -5 15 C-4.67 13.35 -4.34 11.7 -4 10 C-3.35103174 8.2146857 -2.66312895 6.44305392 -1.9375 4.6875 C-1.57527344 3.80449219 -1.21304688 2.92148438 -0.83984375 2.01171875 C-0.56269531 1.34785156 -0.28554687 0.68398437 0 0 Z " fill="#0C1319" transform="translate(245,196)"/>
<path d="M0 0 C2.24940295 -0.08119503 4.49964871 -0.13927819 6.75 -0.1875 C8.00296875 -0.22230469 9.2559375 -0.25710937 10.546875 -0.29296875 C14.16336296 0.01385998 15.55933593 0.35997475 18 3 C18.5 6.5 18.5 6.5 18 10 C15.55933593 12.64002525 14.16336296 12.98614002 10.546875 13.29296875 C9.29390625 13.25816406 8.0409375 13.22335937 6.75 13.1875 C5.48671875 13.16042969 4.2234375 13.13335937 2.921875 13.10546875 C1.95765625 13.07066406 0.9934375 13.03585937 0 13 C0 8.71 0 4.42 0 0 Z M2 2 C2 4.97 2 7.94 2 11 C4.12472576 11.05386629 6.24983652 11.09273071 8.375 11.125 C10.15003906 11.15980469 10.15003906 11.15980469 11.9609375 11.1953125 C15.11153817 11.32866229 15.11153817 11.32866229 17 9 C17.33333333 6.5 17.33333333 6.5 17 4 C15.11153817 1.67133771 15.11153817 1.67133771 11.9609375 1.8046875 C10.18589844 1.83949219 10.18589844 1.83949219 8.375 1.875 C6.59222656 1.90207031 6.59222656 1.90207031 4.7734375 1.9296875 C3.40058594 1.96449219 3.40058594 1.96449219 2 2 Z " fill="#404242" transform="translate(330,251)"/>
<path d="M0 0 C1.04177835 4.1671134 0.92430484 5.08933549 -0.3984375 8.94921875 C-0.71296875 9.87927734 -1.0275 10.80933594 -1.3515625 11.76757812 C-1.68929688 12.73115234 -2.02703125 13.69472656 -2.375 14.6875 C-2.705 15.66267578 -3.035 16.63785156 -3.375 17.64257812 C-5.83886409 24.83886409 -5.83886409 24.83886409 -7 26 C-9.11884707 26.20429655 -11.2472027 26.31393738 -13.375 26.375 C-14.53773438 26.42398437 -15.70046875 26.47296875 -16.8984375 26.5234375 C-20 26 -20 26 -21.87109375 23.71484375 C-23.21524751 20.48236325 -23.65949987 17.4731013 -24 14 C-22.00902154 16.98646769 -21.05875074 19.59687262 -20 23 C-16.04 23 -12.08 23 -8 23 C-5.36 15.41 -2.72 7.82 0 0 Z " fill="#025426" transform="translate(300,327)"/>
<path d="M0 0 C1.9376248 2.90643721 2.59773061 4.79438921 3.4375 8.125 C4.75270545 13.16438415 6.2880395 18.08266665 8 23 C10.31 23 12.62 23 15 23 C15.66 20.36 16.32 17.72 17 15 C17.33 15 17.66 15 18 15 C18.05399736 16.45792884 18.09279177 17.91642712 18.125 19.375 C18.14820313 20.18710937 18.17140625 20.99921875 18.1953125 21.8359375 C18 24 18 24 16 26 C13.6171875 26.1953125 13.6171875 26.1953125 10.875 26.125 C9.50988281 26.09792969 9.50988281 26.09792969 8.1171875 26.0703125 C7.41851562 26.04710937 6.71984375 26.02390625 6 26 C4.59619545 21.11197786 3.21187221 16.21931615 1.875 11.3125 C1.60236328 10.33700195 1.60236328 10.33700195 1.32421875 9.34179688 C0.43386343 6.05819322 0 3.43806471 0 0 Z " fill="#6F706F" transform="translate(271,263)"/>
<path d="M0 0 C0.66 0.33 1.32 0.66 2 1 C1.67 1.66 1.34 2.32 1 3 C2.03125 3.226875 3.0625 3.45375 4.125 3.6875 C8.38271396 4.89904462 10.84394749 6.91909159 14 10 C14.33 10.99 14.66 11.98 15 13 C16.62882397 14.43948118 16.62882397 14.43948118 18.5625 15.6875 C19.20316406 16.12449219 19.84382813 16.56148437 20.50390625 17.01171875 C20.99761719 17.33785156 21.49132812 17.66398437 22 18 C21.67 19.32 21.34 20.64 21 22 C19.68 22 18.36 22 17 22 C17.33 21.34 17.66 20.68 18 20 C18.66 20.33 19.32 20.66 20 21 C16.48864508 17.39164632 12.82725339 14.0748726 8.9375 10.875 C8.42123047 10.44574219 7.90496094 10.01648438 7.37304688 9.57421875 C4.63502054 7.30706318 1.86603881 5.10313639 -1 3 C-0.67 2.01 -0.34 1.02 0 0 Z " fill="#1B404D" transform="translate(216,194)"/>
<path d="M0 0 C6.93 0 13.86 0 21 0 C20.67 0.99 20.34 1.98 20 3 C13.73 2.67 7.46 2.34 1 2 C1 4.31 1 6.62 1 9 C6.94 9 12.88 9 19 9 C19 9.33 19 9.66 19 10 C12.73 10 6.46 10 0 10 C0 6.7 0 3.4 0 0 Z " fill="#02401D" transform="translate(245,316)"/>
<path d="M0 0 C4.29 0 8.58 0 13 0 C13.929062 2.30545014 14.85599787 4.6117752 15.7734375 6.921875 C16.64270535 9.10334972 17.52415765 11.2799872 18.4140625 13.453125 C18.87554687 14.60296875 19.33703125 15.7528125 19.8125 16.9375 C20.25207031 18.01902344 20.69164062 19.10054688 21.14453125 20.21484375 C22 23 22 23 21 26 C18.01303134 22.60571744 17.10454813 19.34455598 16 15 C14.77181613 10.62459495 13.46862641 6.30097734 12 2 C8.37 2 4.74 2 1 2 C0.34 3.98 -0.32 5.96 -1 8 C-2 5 -2 5 0 0 Z " fill="#252627" transform="translate(198,242)"/>
<path d="M0 0 C3.8373228 2.49872182 7.45960866 5.0843836 11 8 C9.61766285 12.14701146 6.67127858 13.87989796 3.3125 16.4375 C2.69955078 16.91509766 2.08660156 17.39269531 1.45507812 17.88476562 C-2.26345439 20.7594318 -6.05907954 23.43930975 -10 26 C-8.25156335 21.030759 -3.79059325 18.63968714 0.30078125 15.7109375 C3.38958776 13.43791059 5.70272384 11.6869954 7 8 C6.4946875 7.59007812 5.989375 7.18015625 5.46875 6.7578125 C4.8190625 6.21898437 4.169375 5.68015625 3.5 5.125 C2.8503125 4.59132812 2.200625 4.05765625 1.53125 3.5078125 C1.0259375 3.01023438 0.520625 2.51265625 0 2 C0 1.34 0 0.68 0 0 Z " fill="#234F63" transform="translate(274,187)"/>
<path d="M0 0 C5.52350698 0.36546512 8.49426003 2.6387359 12.4375 6.25 C13.57381359 7.25323911 14.71181935 8.25456505 15.8515625 9.25390625 C16.39200195 9.73102051 16.93244141 10.20813477 17.48925781 10.69970703 C20.18426737 13.0192967 23.05533506 15.01406318 26 17 C25.67 17.66 25.34 18.32 25 19 C23.78376953 18.05640625 23.78376953 18.05640625 22.54296875 17.09375 C15.44777055 11.60409748 8.28984866 6.22999163 1 1 C1.33 1.99 1.66 2.98 2 4 C1.34 4 0.68 4 0 4 C0 2.68 0 1.36 0 0 Z " fill="#225665" transform="translate(263,176)"/>
<path d="M0 0 C1.384434 3.74934533 0.58310003 6.13403682 -0.65234375 9.859375 C-1.01650391 10.97441406 -1.38066406 12.08945312 -1.75585938 13.23828125 C-2.14580078 14.39714844 -2.53574219 15.55601562 -2.9375 16.75 C-3.32357422 17.92433594 -3.70964844 19.09867187 -4.10742188 20.30859375 C-5.06240621 23.20891656 -6.02689967 26.10571525 -7 29 C-7.66 28.67 -8.32 28.34 -9 28 C-9 27.01 -9 26.02 -9 25 C-9.66 25 -10.32 25 -11 25 C-11 22.69 -11 20.38 -11 18 C-9 21 -9 21 -8 23 C-5.06222593 15.42363529 -2.54179856 7.71581538 0 0 Z " fill="#022813" transform="translate(294,313)"/>
<path d="M0 0 C1.28707153 3.8612146 0.43687336 5.15521607 -1.01953125 8.91015625 C-1.46490234 10.06451172 -1.91027344 11.21886719 -2.36914062 12.40820312 C-2.84544922 13.61412109 -3.32175781 14.82003906 -3.8125 16.0625 C-4.27720703 17.27228516 -4.74191406 18.48207031 -5.22070312 19.72851562 C-8.72624771 28.72624771 -8.72624771 28.72624771 -11 31 C-10.45070153 25.91898913 -8.77477096 21.50724672 -6.98046875 16.765625 C-6.10893061 14.30726245 -5.44632294 11.91624443 -4.875 9.375 C-4.441875 7.704375 -4.441875 7.704375 -4 6 C-3.34 5.67 -2.68 5.34 -2 5 C-1.27840576 3.35636866 -0.60648579 1.68949614 0 0 Z " fill="#203F56" transform="translate(251,185)"/>
<path d="M0 0 C2.57992458 3.07606392 4.95693203 6.26961093 7.25 9.5625 C7.77078125 10.30628906 8.2915625 11.05007813 8.828125 11.81640625 C10 14 10 14 10 18 C6.37 18 2.74 18 -1 18 C-1.66 16.35 -2.32 14.7 -3 13 C-2.01 13.33 -1.02 13.66 0 14 C0 14.99 0 15.98 0 17 C2.97 17 5.94 17 9 17 C8.60167969 16.48050781 8.20335937 15.96101563 7.79296875 15.42578125 C0 5.16788321 0 5.16788321 0 0 Z " fill="#515252" transform="translate(350,271)"/>
<path d="M0 0 C3.96 0 7.92 0 12 0 C12.867242 2.41267325 13.71896936 4.82904469 14.5625 7.25 C14.80935547 7.93191406 15.05621094 8.61382812 15.31054688 9.31640625 C17.47053761 15.58342161 17.47053761 15.58342161 16 19 C15.67 17.02 15.34 15.04 15 13 C14.34 13 13.68 13 13 13 C11.40861915 8.82262526 10.78721942 5.46839215 11 1 C8.03 1 5.06 1 2 1 C2.33 3.31 2.66 5.62 3 8 C0.4345406 5.4345406 0.45953913 3.52313332 0 0 Z " fill="#4E4E4E" transform="translate(141,242)"/>
<path d="M0 0 C1.64680455 4.04215662 0.24159458 6.77818603 -1.3125 10.6875 C-1.98732422 12.42580078 -1.98732422 12.42580078 -2.67578125 14.19921875 C-4 17 -4 17 -6 18 C-6.72159424 19.64363134 -7.39351421 21.31050386 -8 23 C-9.14680101 19.55959697 -8.87124738 18.99729616 -7.56640625 15.76953125 C-7.24736328 14.96708984 -6.92832031 14.16464844 -6.59960938 13.33789062 C-6.08624023 12.08782227 -6.08624023 12.08782227 -5.5625 10.8125 C-5.22412109 9.96751953 -4.88574219 9.12253906 -4.53710938 8.25195312 C-3.69974448 6.16443784 -2.85379803 4.08083591 -2 2 C-1.34 2 -0.68 2 0 2 C0 1.34 0 0.68 0 0 Z " fill="#152636" transform="translate(257,168)"/>
<path d="M0 0 C3.63 0 7.26 0 11 0 C10.45018084 6.04801071 9.09570426 11.30601106 7 17 C6.67 17 6.34 17 6 17 C6.55145271 11.76119922 7.42922093 7.02649303 9 2 C6.36 2 3.72 2 1 2 C0.34 3.32 -0.32 4.64 -1 6 C-0.67 4.02 -0.34 2.04 0 0 Z " fill="#033E1E" transform="translate(296,307)"/>
<path d="M0 0 C3.47899158 1.39159663 4.48052501 2.63251488 6 6 C-0.14659182 11.58241189 -6.46888353 16.87327809 -13 22 C-13 19 -13 19 -11.53125 17.46606445 C-10.52578125 16.67268677 -10.52578125 16.67268677 -9.5 15.86328125 C-8.778125 15.28642578 -8.05625 14.70957031 -7.3125 14.11523438 C-6.1678125 13.22288086 -6.1678125 13.22288086 -5 12.3125 C-4.236875 11.70599609 -3.47375 11.09949219 -2.6875 10.47460938 C-0.79796804 8.97479338 1.09789044 7.48380987 3 6 C2.01 4.02 1.02 2.04 0 0 Z " fill="#0A1118" transform="translate(276,191)"/>
<path d="M0 0 C0.33 0 0.66 0 1 0 C1 8.25 1 16.5 1 25 C0.67 25 0.34 25 0 25 C-1.33333333 19.66666667 -2.66666667 14.33333333 -4 9 C-3.01 9.33 -2.02 9.66 -1 10 C-0.67 6.7 -0.34 3.4 0 0 Z " fill="#06100B" transform="translate(235,308)"/>
<path d="M0 0 C3.26170837 0.59630351 5.13224998 1.64369767 7.625 3.8125 C8.21539062 4.31394531 8.80578125 4.81539062 9.4140625 5.33203125 C11.09977699 7.10493787 12.02277675 8.76980239 13 11 C9.76306836 9.51516897 7.0674375 7.67292565 4.25 5.5 C3.45078125 4.8915625 2.6515625 4.283125 1.828125 3.65625 C1.22484375 3.1096875 0.6215625 2.563125 0 2 C0 1.34 0 0.68 0 0 Z " fill="#162B3A" transform="translate(263,180)"/>
<path d="M0 0 C0.66 0 1.32 0 2 0 C2 0.66 2 1.32 2 2 C5.96 2 9.92 2 14 2 C14 1.34 14 0.68 14 0 C14.66 0 15.32 0 16 0 C15.67 1.32 15.34 2.64 15 4 C10.38 4 5.76 4 1 4 C0.67 2.68 0.34 1.36 0 0 Z " fill="#838383" transform="translate(155,285)"/>
<path d="M0 0 C1.83163866 3.38148676 3.0244087 6.83857179 4.1875 10.5 C4.55230469 11.6240625 4.91710937 12.748125 5.29296875 13.90625 C5.96644123 16.85315722 6.06533987 18.23147346 5 21 C1.55828345 13.7355197 -0.67360912 8.08330939 0 0 Z " fill="#02672E" transform="translate(277,310)"/>
<path d="M0 0 C1.32 0 2.64 0 4 0 C7.94998798 6.54216759 8.50146657 11.42228293 8 19 C7.34 19 6.68 19 6 19 C6.03480469 18.11248047 6.03480469 18.11248047 6.0703125 17.20703125 C6.24097628 9.73439573 4.94377235 5.76773441 0 0 Z " fill="#013F1C" transform="translate(217,318)"/>
<path d="M0 0 C1.32830615 3.98491845 0.23204404 5.40048548 -1.4375 9.1875 C-1.91058594 10.27417969 -2.38367188 11.36085937 -2.87109375 12.48046875 C-3.42990234 13.72763672 -3.42990234 13.72763672 -4 15 C-5.09969293 11.70092122 -4.90192008 10.29093739 -4.25 6.9375 C-4.09015625 6.05964844 -3.9303125 5.18179688 -3.765625 4.27734375 C-3 2 -3 2 0 0 Z " fill="#132831" transform="translate(255,190)"/>
<path d="M0 0 C0.66 0 1.32 0 2 0 C2.86555948 2.09950586 3.71711277 4.2047907 4.5625 6.3125 C5.03816406 7.48425781 5.51382813 8.65601563 6.00390625 9.86328125 C7 13 7 13 6 16 C1.97953562 11.43129048 1.06296299 5.84629643 0 0 Z " fill="#616262" transform="translate(213,252)"/>
<path d="M0 0 C1.41687119 4.25061356 0.19320039 6.71851625 -1 11 C-1.66 11 -2.32 11 -3 11 C-3.66 12.65 -4.32 14.3 -5 16 C-5.33 15.34 -5.66 14.68 -6 14 C-5.29296875 12.01171875 -5.29296875 12.01171875 -4.1875 9.6875 C-3.62869141 8.48867187 -3.62869141 8.48867187 -3.05859375 7.265625 C-2.70925781 6.51796875 -2.35992187 5.7703125 -2 5 C-1.32165413 3.33805262 -0.64800425 1.67401097 0 0 Z " fill="#1D4352" transform="translate(250,199)"/>
<path d="M0 0 C0.66 0.33 1.32 0.66 2 1 C0.9171875 1.81404297 0.9171875 1.81404297 -0.1875 2.64453125 C-1.115625 3.35996094 -2.04375 4.07539063 -3 4.8125 C-3.928125 5.52019531 -4.85625 6.22789062 -5.8125 6.95703125 C-6.534375 7.63121094 -7.25625 8.30539063 -8 9 C-8 9.99 -8 10.98 -8 12 C-9.32 11.67 -10.64 11.34 -12 11 C-10.68774191 7.06322574 -8.8038606 6.1728218 -5.4375 3.8125 C-4.42558594 3.09707031 -3.41367188 2.38164062 -2.37109375 1.64453125 C-1.58863281 1.10183594 -0.80617187 0.55914062 0 0 Z " fill="#0E151F" transform="translate(229,186)"/>
<path d="M0 0 C3.99500618 1.3697164 6.80009492 3.25722422 10 6 C9.67 7.32 9.34 8.64 9 10 C7.68 10 6.36 10 5 10 C5.33 9.34 5.66 8.68 6 8 C6.66 8.33 7.32 8.66 8 9 C7.236875 8.2575 6.47375 7.515 5.6875 6.75 C3.5606298 4.5736677 1.7440044 2.47832204 0 0 Z " fill="#235264" transform="translate(228,206)"/>
<path d="M0 0 C0.66 0 1.32 0 2 0 C1.45660208 4.56454251 0.20536179 7.9728176 -2 12 C-3.12377697 8.69564916 -2.89554742 6.9493138 -1.5625 3.75 C-1.27503906 3.04359375 -0.98757812 2.3371875 -0.69140625 1.609375 C-0.46324219 1.07828125 -0.23507813 0.5471875 0 0 Z " fill="#08DF6D" transform="translate(245,204)"/>
<path d="M0 0 C2.29903669 4.10542266 4.35523153 8.69099505 3.625 13.4375 C3.41875 13.953125 3.2125 14.46875 3 15 C0.31780178 9.63560356 -0.3152595 5.98993047 0 0 Z " fill="#595959" transform="translate(275,248)"/>
<path d="M0 0 C0.99 0.33 1.98 0.66 3 1 C2.01 4.3 1.02 7.6 0 11 C-2 8 -2 8 -1.6875 4.9375 C-1 2 -1 2 0 0 Z " fill="#0EC46D" transform="translate(248,196)"/>
<path d="M0 0 C0.99 1.485 0.99 1.485 2 3 C2.66 3.66 3.32 4.32 4 5 C4.125 8.125 4.125 8.125 4 11 C3.01 10.67 2.02 10.34 1 10 C0.67 6.7 0.34 3.4 0 0 Z " fill="#5D5D5D" transform="translate(160,268)"/>
<path d="M0 0 C1.47177418 3.82661288 0.57016757 6.31010622 -1 10 C-1.96715918 11.03179606 -2.96225307 12.0392288 -4 13 C-3.52140759 11.39566191 -3.04210442 9.79153584 -2.5625 8.1875 C-2.29566406 7.29417969 -2.02882812 6.40085937 -1.75390625 5.48046875 C-1.19612127 3.64526945 -0.60655425 1.81966274 0 0 Z " fill="#606261" transform="translate(189,266)"/>
<path d="M0 0 C4.13333333 6.2 4.13333333 6.2 3.625 9.25 C3.41875 9.8275 3.2125 10.405 3 11 C2.67 9.68 2.34 8.36 2 7 C1.34 7 0.68 7 0 7 C0 4.69 0 2.38 0 0 Z " fill="#044621" transform="translate(283,331)"/>
<path d="M0 0 C0.33 0.99 0.66 1.98 1 3 C1.66 3 2.32 3 3 3 C3 3.99 3 4.98 3 6 C1.68 5.67 0.36 5.34 -1 5 C-1.33 3.68 -1.66 2.36 -2 1 C-1.34 0.67 -0.68 0.34 0 0 Z " fill="#142233" transform="translate(263,212)"/>
<path d="M0 0 C1 3 1 3 -0.4375 6.1875 C-1.2109375 7.5796875 -1.2109375 7.5796875 -2 9 C-2.33 9 -2.66 9 -3 9 C-2.25 2.25 -2.25 2.25 0 0 Z " fill="#07E16D" transform="translate(252,189)"/>
</svg>
