<svg xmlns="http://www.w3.org/2000/svg" width="500" height="500">
<path d="M0 0 C165 0 330 0 500 0 C500 165 500 330 500 500 C335 500 170 500 0 500 C0 335 0 170 0 0 Z " fill="#127244" transform="translate(0,0)"/>
<path d="M0 0 C165 0 330 0 500 0 C500 165 500 330 500 500 C335 500 170 500 0 500 C0 335 0 170 0 0 Z M107 48 C106.45230957 48.39896484 105.90461914 48.79792969 105.34033203 49.20898438 C87.44575075 62.37159613 70.51281593 77.29887244 57 95 C56.49001465 95.65532715 55.9800293 96.3106543 55.45458984 96.98583984 C21.94116026 140.18500823 2.8639365 193.06078392 2.6875 247.8125 C2.68488159 248.59502136 2.68226318 249.37754272 2.67956543 250.18377686 C2.67393092 266.05899464 4.27331915 281.34509097 7 297 C7.13889648 297.84546387 7.27779297 298.69092773 7.42089844 299.56201172 C13.64631033 336.51054411 31.84339929 372.86339801 55 402 C55.70382813 402.89589844 56.40765625 403.79179687 57.1328125 404.71484375 C63.07384049 412.13580524 69.47034686 419.0996467 76 426 C76.63808594 426.680625 77.27617188 427.36125 77.93359375 428.0625 C82.88177795 433.18867644 88.4248252 437.5790606 94 442 C94.99 442.79535156 95.98 443.59070313 97 444.41015625 C148.18202492 484.7799784 213.76123493 503.32065371 278.58154297 496.12304688 C317.72677117 490.94218211 357.84439174 477.43254431 390 454 C390.59554688 453.57138672 391.19109375 453.14277344 391.8046875 452.70117188 C410.15300889 439.4557471 426.95852196 424.82553738 441 407 C441.87108162 405.92991843 442.74353065 404.86094884 443.6171875 403.79296875 C462.21743001 380.87991545 475.56402747 354.90429226 485 327 C485.4343335 325.75935791 485.4343335 325.75935791 485.87744141 324.49365234 C494.07118658 300.90589035 497.23018384 275.43667759 497.1875 250.5625 C497.18623108 249.80345367 497.18496216 249.04440735 497.18365479 248.26235962 C497.0291401 199.76964948 482.81686313 149.54430853 454 110 C453.57138672 109.40445313 453.14277344 108.80890625 452.70117188 108.1953125 C439.21782334 89.51740549 424.23306191 72.18637982 406 58 C405.06196533 57.25532471 405.06196533 57.25532471 404.10498047 56.49560547 C394.47526918 48.85111741 384.7694053 41.93534241 374 36 C373.17290527 35.5373877 372.34581055 35.07477539 371.49365234 34.59814453 C354.07760799 24.9218646 336.12942684 17.55101489 317 12 C315.31003906 11.49146484 315.31003906 11.49146484 313.5859375 10.97265625 C305.72752717 8.74515064 297.86314856 7.16672743 289.8125 5.8125 C288.82749512 5.64564697 287.84249023 5.47879395 286.82763672 5.30688477 C274.51028196 3.31277331 262.26885142 2.76185921 249.8125 2.75 C249.07177246 2.74899292 248.33104492 2.74798584 247.56787109 2.74694824 C197.74544444 2.7923969 147.39671379 18.50360857 107 48 Z " fill="#FEFEFE" transform="translate(0,0)"/>
<path d="M0 0 C5.09039544 3.65162251 10.11554191 8.74477549 12.36328125 14.6953125 C13.50132812 24.12313237 12.04580668 32.48475637 9.08105469 41.41723633 C7.44839461 46.39283086 5.90247982 51.39315001 4.36213684 56.39797974 C-0.52225817 72.26490096 -5.6261985 88.05316258 -10.82421875 103.8203125 C-11.48015769 105.81405285 -12.1356744 107.80793166 -12.79112625 109.8018322 C-18.32061038 126.62264544 -23.87024101 143.43682604 -29.4174366 160.25180435 C-30.42977665 163.32058274 -31.44200779 166.38939704 -32.45420837 169.45822144 C-33.13003047 171.50714274 -33.80585749 173.55606242 -34.48168945 175.60498047 C-34.81610644 176.6188426 -35.15052343 177.63270473 -35.49507427 178.67728996 C-37.48128375 184.69837089 -39.46892809 190.71897591 -41.45762444 196.73923588 C-52.7837463 230.7243946 -52.7837463 230.7243946 -63.26171875 264.9765625 C-64.32661503 268.6488412 -65.41583045 272.31341395 -66.51171875 275.9765625 C-69.6878187 286.60393003 -72.82692229 297.23134519 -75.69921875 307.9453125 C-79.04276093 320.3924133 -82.83989461 332.69116281 -86.66259766 344.99804688 C-87.71818179 348.39660809 -88.77178821 351.79577345 -89.82421875 355.1953125 C-90.16751221 356.30237549 -90.51080566 357.40943848 -90.86450195 358.55004883 C-92.61034055 364.21858319 -94.25056514 369.88153386 -95.69921875 375.6328125 C-100.62601159 394.54046046 -107.12970078 412.86989426 -124.62890625 423.515625 C-136.18426652 429.60203614 -147.3819314 431.6539801 -160.13671875 428.1328125 C-181.0715898 420.98974552 -193.28498465 403.62377129 -202.82421875 384.6953125 C-204.11957892 382.03990265 -205.38125383 379.36975763 -206.63671875 376.6953125 C-207.136875 375.65890625 -207.63703125 374.6225 -208.15234375 373.5546875 C-229.99899713 325.78013781 -238.5121346 269.59177971 -247.18920898 218.24194336 C-247.77312697 214.9190582 -248.44315489 211.61652833 -249.11645508 208.31079102 C-249.90541805 204.34450274 -250.61539601 200.36444428 -251.3359375 196.38525391 C-253.64341164 183.67761169 -256.15887755 171.03737478 -259.01611328 158.44189453 C-259.63933604 155.68372929 -260.24544376 152.92212358 -260.8515625 150.16015625 C-266.42265165 124.26226549 -266.42265165 124.26226549 -280.63671875 102.6953125 C-284.08008649 101.36982418 -284.08008649 101.36982418 -287.63671875 101.6953125 C-291.19608588 105.16101207 -292.54370281 107.7186451 -293.01171875 112.6328125 C-292.99848138 116.75625435 -291.96688018 119.51947979 -290.13671875 123.1953125 C-287.68903138 128.21656831 -286.41083157 132.14916165 -287.63671875 137.6953125 C-290.3487503 144.60179962 -294.73291291 150.86799913 -301.57421875 154.0703125 C-306.98375656 155.17429981 -310.84765348 155.44209982 -315.69921875 152.6328125 C-325.34396727 145.9242302 -331.31330314 134.77609064 -333.39453125 123.265625 C-334.97976928 106.44164715 -332.83700657 90.60385406 -322.25 76.90039062 C-311.6324968 64.58921064 -297.93370291 56.9152193 -281.65625 55.421875 C-264.05377579 54.86442758 -247.85140745 60.39936865 -234.51171875 71.9453125 C-232.86865166 73.50988912 -231.24361036 75.09360441 -229.63671875 76.6953125 C-228.8375 77.47132812 -228.03828125 78.24734375 -227.21484375 79.046875 C-192.31426955 114.94778413 -184.67626578 171.12599853 -175.43394089 217.9866066 C-172.01917958 235.29927908 -168.4696124 252.55559086 -164.26171875 269.6953125 C-164.06879242 270.4869278 -163.87586609 271.27854309 -163.67709351 272.09414673 C-160.92116611 283.33843135 -157.70417651 294.42038288 -154.31190491 305.48799133 C-153.30409964 308.78271216 -152.3145065 312.08278712 -151.32421875 315.3828125 C-150.48954966 318.82598545 -150.48954966 318.82598545 -148.63671875 321.6953125 C-139.13878704 296.76451427 -130.0474635 271.72238365 -121.34338379 246.5037384 C-119.33080922 240.67918321 -117.28983217 234.86537245 -115.2265625 229.05859375 C-109.86515377 213.95744705 -104.65053446 198.8316453 -99.76171875 183.5703125 C-93.38953529 163.68500287 -86.52487996 143.98181162 -79.55731201 124.29821777 C-78.66780212 121.7831983 -77.78098808 119.26724543 -76.89501953 116.75097656 C-65.47003011 84.32799915 -53.56714652 52.01311005 -40.38671875 20.2578125 C-39.98171143 19.26547607 -39.5767041 18.27313965 -39.15942383 17.25073242 C-35.46260093 8.54671225 -31.3971031 1.751046 -22.63671875 -2.3046875 C-14.75200048 -4.69942631 -7.17065153 -4.00275603 0 0 Z " fill="#D8D8D8" transform="translate(376.63671875,50.3046875)"/>
<path d="M0 0 C5.09039544 3.65162251 10.11554191 8.74477549 12.36328125 14.6953125 C13.50132812 24.12313237 12.04580668 32.48475637 9.08105469 41.41723633 C7.44839461 46.39283086 5.90247982 51.39315001 4.36213684 56.39797974 C-0.52225817 72.26490096 -5.6261985 88.05316258 -10.82421875 103.8203125 C-11.48015769 105.81405285 -12.1356744 107.80793166 -12.79112625 109.8018322 C-18.32061038 126.62264544 -23.87024101 143.43682604 -29.4174366 160.25180435 C-30.42977665 163.32058274 -31.44200779 166.38939704 -32.45420837 169.45822144 C-33.13003047 171.50714274 -33.80585749 173.55606242 -34.48168945 175.60498047 C-34.81610644 176.6188426 -35.15052343 177.63270473 -35.49507427 178.67728996 C-37.48128375 184.69837089 -39.46892809 190.71897591 -41.45762444 196.73923588 C-52.7837463 230.7243946 -52.7837463 230.7243946 -63.26171875 264.9765625 C-64.32661503 268.6488412 -65.41583045 272.31341395 -66.51171875 275.9765625 C-69.6878187 286.60393003 -72.82692229 297.23134519 -75.69921875 307.9453125 C-79.04276093 320.3924133 -82.83989461 332.69116281 -86.66259766 344.99804688 C-87.71818179 348.39660809 -88.77178821 351.79577345 -89.82421875 355.1953125 C-90.16751221 356.30237549 -90.51080566 357.40943848 -90.86450195 358.55004883 C-92.61034055 364.21858319 -94.25056514 369.88153386 -95.69921875 375.6328125 C-100.62601159 394.54046046 -107.12970078 412.86989426 -124.62890625 423.515625 C-136.18426652 429.60203614 -147.3819314 431.6539801 -160.13671875 428.1328125 C-181.0715898 420.98974552 -193.28498465 403.62377129 -202.82421875 384.6953125 C-204.11957892 382.03990265 -205.38125383 379.36975763 -206.63671875 376.6953125 C-207.136875 375.65890625 -207.63703125 374.6225 -208.15234375 373.5546875 C-229.99899713 325.78013781 -238.5121346 269.59177971 -247.18920898 218.24194336 C-247.77312697 214.9190582 -248.44315489 211.61652833 -249.11645508 208.31079102 C-249.90541805 204.34450274 -250.61539601 200.36444428 -251.3359375 196.38525391 C-253.64341164 183.67761169 -256.15887755 171.03737478 -259.01611328 158.44189453 C-259.63933604 155.68372929 -260.24544376 152.92212358 -260.8515625 150.16015625 C-266.42265165 124.26226549 -266.42265165 124.26226549 -280.63671875 102.6953125 C-284.08008649 101.36982418 -284.08008649 101.36982418 -287.63671875 101.6953125 C-291.19608588 105.16101207 -292.54370281 107.7186451 -293.01171875 112.6328125 C-292.99848138 116.75625435 -291.96688018 119.51947979 -290.13671875 123.1953125 C-287.68903138 128.21656831 -286.41083157 132.14916165 -287.63671875 137.6953125 C-290.3487503 144.60179962 -294.73291291 150.86799913 -301.57421875 154.0703125 C-306.98375656 155.17429981 -310.84765348 155.44209982 -315.69921875 152.6328125 C-325.34396727 145.9242302 -331.31330314 134.77609064 -333.39453125 123.265625 C-334.97976928 106.44164715 -332.83700657 90.60385406 -322.25 76.90039062 C-311.6324968 64.58921064 -297.93370291 56.9152193 -281.65625 55.421875 C-264.05377579 54.86442758 -247.85140745 60.39936865 -234.51171875 71.9453125 C-232.86865166 73.50988912 -231.24361036 75.09360441 -229.63671875 76.6953125 C-228.8375 77.47132812 -228.03828125 78.24734375 -227.21484375 79.046875 C-192.31426955 114.94778413 -184.67626578 171.12599853 -175.43394089 217.9866066 C-172.01917958 235.29927908 -168.4696124 252.55559086 -164.26171875 269.6953125 C-164.06879242 270.4869278 -163.87586609 271.27854309 -163.67709351 272.09414673 C-160.92116611 283.33843135 -157.70417651 294.42038288 -154.31190491 305.48799133 C-153.30409964 308.78271216 -152.3145065 312.08278712 -151.32421875 315.3828125 C-150.48954966 318.82598545 -150.48954966 318.82598545 -148.63671875 321.6953125 C-139.13878704 296.76451427 -130.0474635 271.72238365 -121.34338379 246.5037384 C-119.33080922 240.67918321 -117.28983217 234.86537245 -115.2265625 229.05859375 C-109.86515377 213.95744705 -104.65053446 198.8316453 -99.76171875 183.5703125 C-93.38953529 163.68500287 -86.52487996 143.98181162 -79.55731201 124.29821777 C-78.66780212 121.7831983 -77.78098808 119.26724543 -76.89501953 116.75097656 C-65.47003011 84.32799915 -53.56714652 52.01311005 -40.38671875 20.2578125 C-39.98171143 19.26547607 -39.5767041 18.27313965 -39.15942383 17.25073242 C-35.46260093 8.54671225 -31.3971031 1.751046 -22.63671875 -2.3046875 C-14.75200048 -4.69942631 -7.17065153 -4.00275603 0 0 Z M-25.63671875 9.6953125 C-31.35824973 19.54207165 -35.27587581 30.38529095 -39.44921875 40.9453125 C-40.16401054 42.74427499 -40.8789368 44.54318406 -41.59399414 46.34204102 C-46.7736369 59.39917254 -51.83679326 72.49319184 -56.63671875 85.6953125 C-56.9925 86.67322754 -57.34828125 87.65114258 -57.71484375 88.65869141 C-59.99331784 94.93552649 -62.24860072 101.22045489 -64.49511719 107.50878906 C-65.61082162 110.6230265 -66.73586422 113.73373609 -67.86328125 116.84375 C-75.01103896 136.62305915 -81.74978813 156.5393831 -88.50164795 176.45648193 C-90.91101322 183.5622892 -93.32937275 190.66497962 -95.75390625 197.765625 C-96.08761734 198.74315735 -96.42132843 199.7206897 -96.76515198 200.72784424 C-98.04720773 204.48302005 -99.32936936 208.23815921 -100.61264038 211.99291992 C-103.86552633 221.51203499 -107.09106003 231.03908828 -110.26171875 240.5859375 C-112.9562889 248.69228364 -115.71132718 256.77153651 -118.57421875 264.8203125 C-118.79338959 265.43753174 -119.01256042 266.05475098 -119.2383728 266.69067383 C-123.69778088 279.2329429 -128.31243751 291.71772198 -132.94921875 304.1953125 C-133.28742645 305.10669983 -133.62563416 306.01808716 -133.97409058 306.95709229 C-138.93471918 320.31257285 -143.99078221 333.61157183 -149.63671875 346.6953125 C-155.95209585 329.80717246 -161.44729893 313.01570347 -165.90039062 295.52978516 C-166.74185572 292.29059093 -167.65773491 289.07787004 -168.59033203 285.86401367 C-171.90227518 274.40766503 -174.36342464 262.76428552 -176.88818359 251.11425781 C-177.57479721 247.97814004 -178.28157898 244.84771059 -179 241.71875 C-181.49511628 230.79606069 -183.82128971 219.85755796 -185.95703125 208.859375 C-199.43538331 132.63570687 -199.43538331 132.63570687 -245.6640625 73.4140625 C-259.84543173 65.21458489 -275.24511438 61.98108186 -291.453125 65.53125 C-304.77411493 70.30821149 -314.24771535 78.72163457 -320.9453125 91.1171875 C-326.82035958 103.59897251 -327.46317228 116.54472683 -322.98046875 129.640625 C-320.40385393 135.49792962 -316.63539078 141.57875906 -311.63671875 145.6953125 C-308.5445647 146.09430012 -306.59643968 146.32540934 -303.63671875 145.6953125 C-300.38790497 143.08213619 -297.03942815 140.02728087 -296.30078125 135.75 C-296.22255976 131.3852411 -296.60893848 128.34267741 -298.63671875 124.4453125 C-301.73128657 118.13460455 -301.86474431 110.99340196 -299.94140625 104.26171875 C-297.56263976 98.97446046 -293.84803735 95.3009718 -288.63671875 92.6953125 C-283.38846939 92.34688101 -279.50984876 93.31536613 -275.44921875 96.6953125 C-263.81110346 108.19569861 -258.72269673 124.62665383 -254.7265625 140.1484375 C-254.47277328 141.12976654 -254.21898407 142.11109558 -253.95750427 143.12216187 C-250.85438683 155.41693736 -248.53738413 167.86227832 -246.19921875 180.3203125 C-245.7199588 182.84046916 -245.23996987 185.36048729 -244.75927734 187.88037109 C-243.37483467 195.1500985 -242.0033457 202.42221712 -240.63671875 209.6953125 C-240.44877747 210.69530273 -240.26083618 211.69529297 -240.06719971 212.72558594 C-239.56023806 215.42379309 -239.05351622 218.12204516 -238.546875 220.8203125 C-237.95213025 223.98703701 -237.35704349 227.15369698 -236.76171875 230.3203125 C-236.62196625 231.06462524 -236.48221375 231.80893799 -236.33822632 232.57580566 C-234.17042781 244.10450165 -231.80937321 255.57898706 -229.23388672 267.02392578 C-228.37640982 270.85978522 -227.54637017 274.70144716 -226.71582031 278.54321289 C-226.08526902 281.45675337 -225.44929817 284.36906934 -224.8125 287.28125 C-224.08442146 290.61647061 -223.37179226 293.9540163 -222.6796875 297.296875 C-220.21739214 309.02883393 -216.89938402 320.45756897 -213.45214844 331.93457031 C-212.74620567 334.32463045 -212.07391026 336.71877923 -211.42578125 339.125 C-205.28515926 361.69219301 -196.18703448 384.23230682 -181.63671875 402.6953125 C-181.146875 403.35015625 -180.65703125 404.005 -180.15234375 404.6796875 C-174.13980889 412.31358008 -165.13316722 418.45849037 -155.63671875 420.6953125 C-143.89482772 421.7530199 -134.4778021 420.83525031 -124.984375 413.66015625 C-115.02174096 405.3220449 -109.70938844 394.18486642 -106.26171875 381.8515625 C-105.83030691 380.34762526 -105.39849015 378.84380412 -104.96630859 377.34008789 C-104.74738953 376.57254181 -104.52847046 375.80499573 -104.30291748 375.01419067 C-103.22524261 371.26306262 -102.10611104 367.52447537 -100.98828125 363.78515625 C-100.53942159 362.27884709 -100.09069238 360.77249904 -99.64208984 359.26611328 C-99.30404327 358.13160736 -99.30404327 358.13160736 -98.95916748 356.97418213 C-94.46760911 341.89580015 -90.01822754 326.80608229 -85.63671875 311.6953125 C-84.91023636 309.19268504 -84.18368636 306.69007731 -83.45703125 304.1875 C-82.33593688 300.32647618 -81.21504445 296.4653948 -80.09521484 292.60400391 C-79.38897865 290.16937343 -78.68175114 287.73503031 -77.97357178 285.30096436 C-77.01960825 282.01958132 -76.07283604 278.73619022 -75.12838745 275.45205688 C-71.07294899 261.39423488 -66.7814405 247.42765845 -62.30078125 233.5 C-61.96206623 232.44399471 -61.62335121 231.38798943 -61.2743721 230.29998398 C-53.07077312 204.73445364 -44.54967768 179.27567314 -36.01171875 153.8203125 C-22.7465214 114.270145 -9.48007639 74.70073315 2.36328125 34.6953125 C2.92789063 32.83132812 2.92789063 32.83132812 3.50390625 30.9296875 C4.9101083 25.63725434 5.77948404 20.45667112 3.1953125 15.41796875 C-0.18376669 10.75327588 -3.86433146 6.16720821 -9.7578125 5.1640625 C-18.5813695 5.03076148 -18.5813695 5.03076148 -25.63671875 9.6953125 Z " fill="#FAFCFB" transform="translate(376.63671875,50.3046875)"/>
</svg>
